<svg width="46" height="46" viewBox="0 0 46 46" fill="none" xmlns="http://www.w3.org/2000/svg">
<g clip-path="url(#clip0_1422_280)">
<path d="M16.0247 1.51297C11.4286 3.1074 7.46488 6.13369 4.71583 10.1473C1.96679 14.1609 0.577273 18.9504 0.751394 23.8121C0.925514 28.6738 2.65409 33.3515 5.68322 37.1582C8.71235 40.9649 12.8824 43.6999 17.5808 44.9614C21.3899 45.9443 25.3807 45.9874 29.2101 45.0872C32.6793 44.308 35.8865 42.6412 38.518 40.25C41.2567 37.6853 43.2446 34.4227 44.268 30.8128C45.3799 26.8872 45.5778 22.759 44.8466 18.745H23.4566V27.618H35.8442C35.5966 29.0331 35.0661 30.3838 34.2843 31.5892C33.5026 32.7945 32.4857 33.8298 31.2945 34.633C29.782 35.634 28.0768 36.3073 26.2884 36.6095C24.495 36.9431 22.6553 36.9431 20.8619 36.6095C19.044 36.2341 17.3243 35.4838 15.8126 34.4066C13.3838 32.6873 11.5601 30.2447 10.6017 27.4275C9.62741 24.5575 9.62741 21.4461 10.6017 18.5761C11.2839 16.5644 12.4116 14.7327 13.9008 13.2178C15.6049 11.4524 17.7624 10.1904 20.1365 9.57043C22.5106 8.95043 25.0096 8.99635 27.3594 9.70313C29.1951 10.2664 30.8737 11.2509 32.2612 12.5781C33.658 11.1885 35.0524 9.79537 36.4444 8.39859C37.1631 7.6475 37.9466 6.93234 38.6545 6.16328C36.5361 4.19218 34.0497 2.65831 31.3376 1.64953C26.3988 -0.143786 20.9948 -0.191979 16.0247 1.51297Z" fill="white"/>
<path d="M16.0244 1.51297C20.994 -0.193139 26.398 -0.146214 31.3373 1.64594C34.0499 2.66157 36.5351 4.20282 38.6506 6.18125C37.9319 6.95031 37.1736 7.66906 36.4404 8.41656C35.0461 9.80854 33.6529 11.1957 32.2609 12.5781C30.8733 11.2509 29.1947 10.2663 27.359 9.70312C25.0101 8.99387 22.5111 8.9453 20.1364 9.56276C17.7616 10.1802 15.6028 11.4398 13.8969 13.2034C12.4077 14.7183 11.28 16.55 10.5978 18.5617L3.14795 12.7937C5.81454 7.50577 10.4316 3.46087 16.0244 1.51297Z" fill="#E33629"/>
<path d="M1.17169 18.5078C1.57182 16.5232 2.23661 14.6014 3.14825 12.7937L10.5981 18.5761C9.62379 21.4461 9.62379 24.5575 10.5981 27.4275C8.11601 29.3442 5.63273 31.2704 3.14825 33.2062C0.866762 28.6649 0.170947 23.4906 1.17169 18.5078Z" fill="#F8BD00"/>
<path d="M23.4562 18.7414H44.8462C45.5775 22.7554 45.3796 26.8836 44.2676 30.8092C43.2442 34.4191 41.2563 37.6817 38.5176 40.2464C36.1134 38.3705 33.6984 36.5089 31.2942 34.633C32.4861 33.829 33.5035 32.7926 34.2853 31.5859C35.0671 30.3793 35.5972 29.0272 35.8438 27.6108H23.4562C23.4526 24.6567 23.4562 21.6991 23.4562 18.7414Z" fill="#587DBD"/>
<path d="M3.14453 33.2063C5.62901 31.2896 8.11229 29.3633 10.5944 27.4275C11.5547 30.2457 13.381 32.6884 15.8125 34.4066C17.3289 35.4788 19.0523 36.223 20.8725 36.5916C22.666 36.9251 24.5056 36.9251 26.2991 36.5916C28.0874 36.2893 29.7927 35.616 31.3052 34.615C33.7094 36.4909 36.1244 38.3525 38.5286 40.2284C35.8976 42.6209 32.6903 44.289 29.2208 45.0692C25.3913 45.9695 21.4005 45.9263 17.5914 44.9434C14.5788 44.1391 11.7648 42.721 9.32578 40.7783C6.74449 38.7285 4.63606 36.1457 3.14453 33.2063Z" fill="#319F43"/>
</g>
<defs>
<clipPath id="clip0_1422_280">
<rect width="46" height="46" fill="white"/>
</clipPath>
</defs>
</svg>
