<svg width="77" height="82" viewBox="0 0 77 82" fill="none" xmlns="http://www.w3.org/2000/svg">
<path opacity="0.7" d="M21.4103 46.1639C21.4103 47.2761 20.9596 48.3428 20.1573 49.1292C19.3551 49.9157 18.267 50.3575 17.1325 50.3575C15.998 50.3575 14.9099 49.9157 14.1077 49.1292C13.3054 48.3428 12.8547 47.2761 12.8547 46.1639C12.8547 45.0516 13.3054 43.985 14.1077 43.1985C14.9099 42.412 15.998 41.9702 17.1325 41.9702C18.267 41.9702 19.3551 42.412 20.1573 43.1985C20.9596 43.985 21.4103 45.0516 21.4103 46.1639ZM59.8889 50.3575C61.0234 50.3575 62.1115 49.9157 62.9137 49.1292C63.716 48.3428 64.1667 47.2761 64.1667 46.1639C64.1667 45.0516 63.716 43.985 62.9137 43.1985C62.1115 42.412 61.0234 41.9702 59.8889 41.9702C58.7544 41.9702 57.6663 42.412 56.864 43.1985C56.0618 43.985 55.6111 45.0516 55.6111 46.1639C55.6111 47.2761 56.0618 48.3428 56.864 49.1292C57.6663 49.9157 58.7544 50.3575 59.8889 50.3575ZM27.7371 53.5028C27.7371 52.6686 28.0751 51.8686 28.6768 51.2787C29.2785 50.6889 30.0945 50.3575 30.9454 50.3575H45.8535C46.7044 50.3575 47.5205 50.6889 48.1221 51.2787C48.7238 51.8686 49.0618 52.6686 49.0618 53.5028C49.0618 54.3369 48.7238 55.1369 48.1221 55.7268C47.5205 56.3166 46.7044 56.648 45.8535 56.648H30.9454C30.0945 56.648 29.2785 56.3166 28.6768 55.7268C28.0751 55.1369 27.7371 54.3369 27.7371 53.5028ZM26.8046 0C25.9537 0 25.1376 0.331374 24.5359 0.921222C23.9342 1.51107 23.5962 2.31108 23.5962 3.14525V10.5177H20.7558C17.7751 10.5168 14.8731 11.455 12.4777 13.1939C10.0823 14.9329 8.32041 17.3805 7.45189 20.1757L7.1995 21.0019H3.20833C2.35743 21.0019 1.54138 21.3332 0.9397 21.9231C0.338021 22.5129 1.10899e-06 23.3129 1.10899e-06 24.1471C1.10899e-06 24.9813 0.338021 25.7813 0.9397 26.3711C1.54138 26.961 2.35743 27.2924 3.20833 27.2924H5.48839L4.62428 30.7605C3.21175 31.6021 2.04422 32.7862 1.23426 34.1987C0.424288 35.6113 -0.000792428 37.2045 1.10899e-06 38.8249V74.4711C1.10899e-06 78.5222 3.35378 81.81 7.48611 81.81H13.9028C15.8882 81.81 17.7923 81.0368 19.1963 79.6605C20.6002 78.2842 21.3889 76.4175 21.3889 74.4711V69.229H55.6111V74.4711C55.6111 78.5222 58.9649 81.81 63.0972 81.81H69.5139C71.4993 81.81 73.4035 81.0368 74.8074 79.6605C76.2113 78.2842 77 76.4175 77 74.4711V38.8249C77 35.4071 75.1434 32.4086 72.3672 30.7563L71.4859 27.2924H73.7917C74.6426 27.2924 75.4586 26.961 76.0603 26.3711C76.662 25.7813 77 24.9813 77 24.1471C77 23.3129 76.662 22.5129 76.0603 21.9231C75.4586 21.3332 74.6426 21.0019 73.7917 21.0019H69.762L69.5267 20.2302C68.6675 17.4228 66.9079 14.9617 64.509 13.2121C62.1102 11.4625 59.1999 10.5176 56.21 10.5177H53.4722V3.14525C53.4722 2.31108 53.1342 1.51107 52.5325 0.921222C51.9308 0.331374 51.1148 0 50.2639 0H26.8046ZM47.0556 10.5177H30.0129V6.2905H47.0556V10.5177ZM20.7558 16.8082H56.21C57.8197 16.8083 59.3866 17.3172 60.678 18.2592C61.9695 19.2012 62.9169 20.5262 63.3796 22.0377L64.2779 24.9817L65.4072 29.3892H11.5714L12.6708 24.9775L13.5948 22.0083C14.0624 20.5037 15.0107 19.1861 16.3 18.2499C17.5893 17.3136 19.1513 16.8082 20.7558 16.8082ZM6.41667 62.9385V38.8249C6.41667 37.9908 6.75469 37.1908 7.35637 36.6009C7.95805 36.0111 8.7741 35.6797 9.625 35.6797H67.375C68.2259 35.6797 69.042 36.0111 69.6436 36.6009C70.2453 37.1908 70.5833 37.9908 70.5833 38.8249V62.9385H6.41667ZM6.41667 74.4711V69.229H14.9722V74.4711C14.9722 74.7491 14.8596 75.0158 14.659 75.2124C14.4584 75.409 14.1864 75.5195 13.9028 75.5195H7.48611C7.20248 75.5195 6.93046 75.409 6.7299 75.2124C6.52934 75.0158 6.41667 74.7491 6.41667 74.4711ZM70.5833 69.229V74.4711C70.5833 74.7491 70.4707 75.0158 70.2701 75.2124C70.0695 75.409 69.7975 75.5195 69.5139 75.5195H63.0972C62.8136 75.5195 62.5416 75.409 62.341 75.2124C62.1404 75.0158 62.0278 74.7491 62.0278 74.4711V69.229H70.5833Z" fill="black"/>
</svg>
