<svg width="75" height="52" viewBox="0 0 75 52" fill="none" xmlns="http://www.w3.org/2000/svg">
<path opacity="0.7" d="M43.9219 29.25C41.1064 29.25 38.7132 28.3021 36.7424 26.4062C34.7715 24.5104 33.7861 22.2083 33.7861 19.5C33.7861 16.7917 34.7715 14.4896 36.7424 12.5938C38.7132 10.6979 41.1064 9.75 43.9219 9.75C46.7374 9.75 49.1306 10.6979 51.1015 12.5938C53.0723 14.4896 54.0578 16.7917 54.0578 19.5C54.0578 22.2083 53.0723 24.5104 51.1015 26.4062C49.1306 28.3021 46.7374 29.25 43.9219 29.25ZM13.5144 39V0H74.3294V39H13.5144ZM27.0289 32.5H60.815C60.815 30.7125 61.4772 29.1817 62.8016 27.9077C64.126 26.6337 65.7162 25.9978 67.5722 26V13C65.714 13 64.1226 12.363 62.7982 11.089C61.4738 9.815 60.8127 8.28533 60.815 6.5H27.0289C27.0289 8.2875 26.3667 9.81825 25.0423 11.0923C23.7178 12.3663 22.1276 13.0022 20.2717 13V26C22.1299 26 23.7212 26.637 25.0456 27.911C26.37 29.185 27.0311 30.7147 27.0289 32.5ZM0 52V9.75H6.75722V45.5H64.1936V52H0Z" fill="black"/>
</svg>
