<svg width="74" height="70" viewBox="0 0 74 70" fill="none" xmlns="http://www.w3.org/2000/svg">
<path opacity="0.7" d="M55.7421 33.1579L60.3842 28.5158C62.0053 26.8947 64.0684 26.0105 66.3158 25.7895V22.1053L44.2105 0H7.36842C3.27895 0 0 3.27895 0 7.36842V58.9474C0 60.9016 0.776313 62.7758 2.15816 64.1576C3.54001 65.5395 5.41419 66.3158 7.36842 66.3158H29.4737V59.4263L29.9526 58.9474H7.36842V7.36842H33.1579V33.1579H55.7421ZM40.5263 5.52632L60.7895 25.7895H40.5263V5.52632ZM59.4263 39.9L66.9421 47.4158L44.3579 70H36.8421V62.4842L59.4263 39.9ZM73.1316 41.2263L69.5211 44.8368L62.0053 37.3211L65.6158 33.7105C66.3158 32.9737 67.5316 32.9737 68.2684 33.7105L73.1316 38.5737C73.8684 39.3105 73.8684 40.5263 73.1316 41.2263Z" fill="black"/>
</svg>
