<svg width="74" height="87" viewBox="0 0 74 87" fill="none" xmlns="http://www.w3.org/2000/svg">
<path opacity="0.7" d="M37 0C46.813 0 56.2241 3.8982 63.1629 10.837C70.1018 17.7759 74 27.187 74 37C74 52.318 62.3244 68.3678 39.4667 85.5111C38.7551 86.0448 37.8895 86.3333 37 86.3333C36.1105 86.3333 35.2449 86.0448 34.5333 85.5111C11.6756 68.3678 0 52.318 0 37C0 27.187 3.8982 17.7759 10.837 10.837C17.7759 3.8982 27.187 0 37 0ZM37 8.22222C29.3677 8.22222 22.0479 11.2542 16.651 16.651C11.2542 22.0479 8.22222 29.3677 8.22222 37C8.22222 48.1411 16.9296 60.9924 34.7307 75.258L37 77.0504L39.2693 75.258C57.0704 60.9924 65.7778 48.1411 65.7778 37C65.7778 29.3677 62.7458 22.0479 57.349 16.651C51.9521 11.2542 44.6323 8.22222 37 8.22222ZM37 28.7778C39.1807 28.7778 41.272 29.644 42.814 31.186C44.356 32.728 45.2222 34.8193 45.2222 37C45.2222 39.1807 44.356 41.272 42.814 42.814C41.272 44.356 39.1807 45.2222 37 45.2222C34.8193 45.2222 32.728 44.356 31.186 42.814C29.644 41.272 28.7778 39.1807 28.7778 37C28.7778 34.8193 29.644 32.728 31.186 31.186C32.728 29.644 34.8193 28.7778 37 28.7778Z" fill="black"/>
</svg>
